<svg id="_170_group_video_call_outline" data-name="#170_group_video_call_outline" xmlns="http://www.w3.org/2000/svg" viewBox="0 0 400 300" width="406" height="306" class="illustration styles_illustrationTablet__1DWOa"><path d="M311.37,75.57V197a14.63,14.63,0,0,1-14.63,14.63H103.27A14.63,14.63,0,0,1,88.63,197V75.57a14.63,14.63,0,0,1,14.64-14.63H296.74A14.63,14.63,0,0,1,311.37,75.57Z" fill="#55d7dc"></path><path d="M296.74,212.6H103.27A15.65,15.65,0,0,1,87.63,197V75.57a15.65,15.65,0,0,1,15.64-15.63H296.74a15.65,15.65,0,0,1,15.63,15.63V197A15.65,15.65,0,0,1,296.74,212.6ZM103.27,61.94A13.65,13.65,0,0,0,89.63,75.57V197a13.65,13.65,0,0,0,13.64,13.63H296.74A13.64,13.64,0,0,0,310.37,197V75.57a13.64,13.64,0,0,0-13.63-13.63Z" fill="#093f68"></path><rect x="103.14" y="74.33" width="193.71" height="123.89" rx="4.01" fill="#fff"></rect><path d="M292.85,199.21H107.15a5,5,0,0,1-5-5V78.33a5,5,0,0,1,5-5h185.7a5,5,0,0,1,5,5V194.21A5,5,0,0,1,292.85,199.21ZM107.15,75.33a3,3,0,0,0-3,3V194.21a3,3,0,0,0,3,3h185.7a3,3,0,0,0,3-3V78.33a3,3,0,0,0-3-3Z" fill="#093f68"></path><path d="M222.25,198.5a1,1,0,0,1-1-1V75.3a1,1,0,0,1,2,0V197.5A1,1,0,0,1,222.25,198.5Z" fill="#093f68"></path><polygon points="236.48 243.84 163.52 243.84 170.16 211.6 229.84 211.6 236.48 243.84" fill="#093f68"></polygon><path d="M236.48,244.85h-73a1,1,0,0,1-1-1.21l6.63-32.24a1,1,0,0,1,1-.8h59.7a1,1,0,0,1,1,.8l6.63,32.24a1,1,0,0,1-1,1.21Zm-71.73-2h70.5L229,212.6H171Z" fill="#093f68"></path><rect x="150.73" y="236.35" width="98.55" height="7.49" rx="3.75" fill="#55d7dc"></rect><path d="M245.53,244.85H154.47a4.75,4.75,0,0,1,0-9.5h91.06a4.75,4.75,0,0,1,0,9.5Zm-91.06-7.5a2.75,2.75,0,0,0,0,5.5h91.06a2.75,2.75,0,0,0,0-5.5Z" fill="#093f68"></path><path d="M296.86,138.27H222.25a1,1,0,0,1,0-2h74.61a1,1,0,0,1,0,2Z" fill="#093f68"></path><path d="M277.68,198.18v-2.43a9.89,9.89,0,0,0-9.89-9.89H252.11a9.9,9.9,0,0,0-9.9,9.9v2.42Z" fill="#55d7dc"></path><path d="M277.68,199.18H242.21a1,1,0,0,1-1-1v-2.42a10.91,10.91,0,0,1,10.9-10.9h15.68a10.9,10.9,0,0,1,10.89,10.89v2.43A1,1,0,0,1,277.68,199.18Zm-34.47-2h33.47v-1.43a8.9,8.9,0,0,0-8.89-8.89H252.11a8.91,8.91,0,0,0-8.9,8.9Z" fill="#093f68"></path><path d="M257.83,184h5a0,0,0,0,1,0,0v2.85a2.1,2.1,0,0,1-2.1,2.1h-.75a2.1,2.1,0,0,1-2.1-2.1V184a0,0,0,0,1,0,0Z" fill="#ffc9b0"></path><path d="M260.68,189.93h-.75a3.1,3.1,0,0,1-3.1-3.1V184a1,1,0,0,1,1-1h4.95a1,1,0,0,1,1,1v2.85A3.1,3.1,0,0,1,260.68,189.93Zm-1.85-5v1.85a1.1,1.1,0,0,0,1.1,1.1h.75a1.1,1.1,0,0,0,1.1-1.1V185Z" fill="#093f68"></path><path d="M243.21,170.24c-2.3-.87-2.16-2.63-2.51-4.89-.75-4.92-2.32-12.94,1.21-17a18.3,18.3,0,0,1,16.17-6.13c2.42.37,4.74,1.23,7.15,1.72,3.37.7,9.65,1.25,12.07-1.91.92,1.76,1.8,7.9-.92,8.69,0,0,3.38-1,3.79,3.52s-2.29,16.46-2.29,16.46l-3.07-.53a21.76,21.76,0,0,0-4.19.13l-9.6.3C256.22,170.7,248.43,172.21,243.21,170.24Z" fill="#725858"></path><path d="M250.13,172.24a20.83,20.83,0,0,1-7.28-1.07h0c-2.53-1-2.77-2.89-3-4.75l-.12-.91-.16-1c-.8-5-2-12.65,1.59-16.84a19.28,19.28,0,0,1,17.08-6.47,36,36,0,0,1,4.25,1c1,.27,2,.54,2.95.74,3.94.82,9.2.91,11.07-1.53a1,1,0,0,1,.88-.39,1,1,0,0,1,.8.53c.75,1.42,1.6,5.59.51,8.17l-.08.17a3.52,3.52,0,0,1,.66.35,4.94,4.94,0,0,1,1.89,3.89c.42,4.6-2.19,16.28-2.3,16.77a1,1,0,0,1-1.15.77l-3.07-.54a10.8,10.8,0,0,0-2.59,0c-.49.05-1,.09-1.4.11l-9.6.3c-1.18,0-2.58.16-4.05.29C254.86,172,252.48,172.24,250.13,172.24Zm-6.57-2.94c3.69,1.4,9,.93,13.26.55,1.51-.14,2.93-.26,4.17-.3l9.59-.3c.41,0,.84-.06,1.28-.1a12.62,12.62,0,0,1,3.13,0l2.12.37c.61-2.87,2.39-11.64,2.06-15.22a3.3,3.3,0,0,0-1-2.41,2,2,0,0,0-1.5-.24,1,1,0,0,1-1.23-.68,1,1,0,0,1,.68-1.24h0c.12,0,.47-.14.75-.8a9.63,9.63,0,0,0,0-5.14c-3.53,2.54-9.81,1.52-11.84,1.1-1-.21-2.07-.5-3.07-.77a33.75,33.75,0,0,0-4-.94A17.21,17.21,0,0,0,242.67,149c-3,3.49-1.88,10.56-1.14,15.23l.16,1c.05.33.09.65.13,1,.24,1.86.39,2.63,1.74,3.14Z" fill="#093f68"></path><ellipse cx="246.15" cy="171.11" rx="4.81" ry="4.15" fill="#ffc9b0"></ellipse><path d="M246.15,176.26c-3.2,0-5.81-2.31-5.81-5.15S243,166,246.15,166s5.81,2.31,5.81,5.14S249.36,176.26,246.15,176.26Zm0-8.29c-2.1,0-3.81,1.41-3.81,3.14s1.71,3.15,3.81,3.15,3.81-1.41,3.81-3.15S248.25,168,246.15,168Z" fill="#093f68"></path><ellipse cx="274.2" cy="171.11" rx="4.81" ry="4.15" fill="#ffc9b0"></ellipse><path d="M274.2,176.26c-3.2,0-5.81-2.31-5.81-5.15S271,166,274.2,166s5.81,2.31,5.81,5.14S277.4,176.26,274.2,176.26Zm0-8.29c-2.1,0-3.81,1.41-3.81,3.14s1.71,3.15,3.81,3.15,3.81-1.41,3.81-3.15S276.3,168,274.2,168Z" fill="#093f68"></path><path d="M260.3,184.62h0a14.5,14.5,0,0,1-14.5-14.5V159.58c.84,1.4,3.66.84,7.79-6.24,15.45,7.83,21.22,3.34,21.22,3.34v13.44A14.5,14.5,0,0,1,260.3,184.62Z" fill="#ffc9b0"></path><path d="M260.3,185.62a15.51,15.51,0,0,1-15.5-15.5V159.58a1,1,0,0,1,.73-1,1,1,0,0,1,1.12.44c0,.09.11.13.26.13h0c.22,0,2.22-.19,5.81-6.36a1,1,0,0,1,1.32-.38c14.54,7.36,20.12,3.47,20.17,3.43a1,1,0,0,1,1.05-.09,1,1,0,0,1,.55.89v13.44A15.52,15.52,0,0,1,260.3,185.62Zm-13.5-24.43v8.93a13.51,13.51,0,0,0,27,0V158.27c-2.67.94-8.85,1.75-19.84-3.62-2.61,4.27-5,6.53-7,6.54Z" fill="#093f68"></path><path d="M256.27,175.68h8.39s-.83,5.5-4.67,5.26C255.62,180.67,256.27,175.68,256.27,175.68Z" fill="#093f68"></path><path d="M248.93,199.18a1,1,0,0,1-1-1v-4.71a1,1,0,1,1,2,0v4.71A1,1,0,0,1,248.93,199.18Z" fill="#093f68"></path><path d="M270.59,199.18a1,1,0,0,1-1-1v-4.71a1,1,0,1,1,2,0v4.71A1,1,0,0,1,270.59,199.18Z" fill="#093f68"></path><circle cx="253.14" cy="168.02" r="1.49" fill="#093f68"></circle><circle cx="269" cy="168.76" r="1.49" fill="#093f68"></circle><path d="M260.26,173.31a9.5,9.5,0,0,1-1.54-.13,1,1,0,0,1,.35-2,7.06,7.06,0,0,0,1.54.09,14.36,14.36,0,0,0-1.15-2.81,1,1,0,0,1,.42-1.35,1,1,0,0,1,1.35.42c.85,1.62,1.76,3.78,1.28,4.85a1.3,1.3,0,0,1-.9.76A5.58,5.58,0,0,1,260.26,173.31Z" fill="#093f68"></path><path d="M255.94,165.05h-7.12a2,2,0,1,1,0-4h7.12a2,2,0,1,1,0,4Z" fill="#093f68"></path><path d="M265.35,165.23a2,2,0,0,1-.1-4l7.1-.37a2,2,0,0,1,.21,4l-7.11.36Z" fill="#093f68"></path><path d="M186.59,150.43c.34,1.74.72,3.5,1.15,5.26a25,25,0,0,1,0,12.43,31.21,31.21,0,0,1-5.68,10.7,27,27,0,0,1-8.09,7.41c-4.22,2.33-9.2,2.87-14,2.8-7.67-.1-15.48-1.69-22-5.72S126.26,172.57,125.26,165a17.12,17.12,0,0,1,.26-6.18c1.15-4.68,4.62-8.38,7-12.6,3.14-5.64,3.39-11.77,7.07-17.24a21.68,21.68,0,0,1,6.33-6.73c8.3-5.08,20.26-4.35,29.17-1.9,2.71.75,5.55,1.84,7.17,4.14,1.38,2,1.64,4.47,1.86,6.86C184.7,137.9,185.37,144.12,186.59,150.43Z" fill="#725858"></path><path d="M160.65,190h-.75c-8.83-.12-16.41-2.09-22.53-5.87-7.22-4.46-12.12-11.59-13.1-19.07a17.94,17.94,0,0,1,.28-6.55c.81-3.3,2.7-6.12,4.53-8.85.87-1.3,1.77-2.64,2.53-4a40.25,40.25,0,0,0,3-7.72,35.18,35.18,0,0,1,4.1-9.6,23.09,23.09,0,0,1,6.65-7c10.72-6.56,25.64-3.19,30-2,2.61.72,5.86,1.88,7.71,4.52,1.58,2.23,1.84,5.07,2.05,7.35.66,7.09,1.34,13,2.49,19,.35,1.78.73,3.54,1.14,5.22a25.91,25.91,0,0,1,0,12.92,31.94,31.94,0,0,1-5.86,11.05,27.46,27.46,0,0,1-8.39,7.68C170.81,189.1,166.41,190,160.65,190Zm.67-70.62c-4.94,0-10.36.85-14.91,3.64a20.74,20.74,0,0,0-6,6.44,33.07,33.07,0,0,0-3.86,9.07,41.46,41.46,0,0,1-3.16,8.1c-.8,1.43-1.72,2.81-2.62,4.14-1.81,2.7-3.53,5.25-4.25,8.21a15.69,15.69,0,0,0-.23,5.81c.9,6.89,5.45,13.48,12.16,17.63,5.81,3.58,13,5.46,21.5,5.57,5.78.07,10.08-.77,13.54-2.67a25.55,25.55,0,0,0,7.78-7.15,30.13,30.13,0,0,0,5.51-10.35,24,24,0,0,0,0-11.93c-.42-1.71-.81-3.49-1.16-5.31h0a192.91,192.91,0,0,1-2.52-19.22c-.2-2.15-.43-4.58-1.69-6.38-1.48-2.1-4.18-3.07-6.61-3.74A53.17,53.17,0,0,0,161.32,119.42Z" fill="#093f68"></path><path d="M195.59,171.14c3.27,1.51,6.43,3.24,9.6,5l6.11-12.7c.38-.79,3.62-9.68,3.45-14.32-.26-6.7-7.28-5.16-8-5.11-1.8.12-4.66,6.8-4.73,10a25.21,25.21,0,0,1-1.82-5.1c-.64-2.27-3.73-2.33-3.13,2.7a61.05,61.05,0,0,0,2.71,10.94s-1.3,2.69-1.9,4Z" fill="#ffc9b0"></path><path d="M205.19,177.1a1,1,0,0,1-.47-.12l-.47-.25c-2.95-1.61-6-3.26-9.08-4.69a1,1,0,0,1-.52-.57,1,1,0,0,1,0-.77l4-8.28a59.58,59.58,0,0,1-2.62-10.76c-.53-4.38,1.49-5.13,2.12-5.26a2.71,2.71,0,0,1,3,2.17c.19.68.37,1.28.54,1.81,1-3.34,3-7.27,5-7.4l.22,0c1.12-.16,4.53-.62,6.81,1.3a6.24,6.24,0,0,1,2.06,4.79c.19,5-3.26,14.18-3.55,14.79l-6.11,12.71a1,1,0,0,1-.59.51A.81.81,0,0,1,205.19,177.1Zm-8.26-6.44c2.66,1.27,5.27,2.68,7.82,4.06C210.4,163,210.4,163,210.4,163c.41-.85,3.51-9.5,3.35-13.83a4.39,4.39,0,0,0-1.34-3.34c-1.61-1.35-4.36-1-5.26-.85l-.36,0c-1,.31-3.73,5.84-3.8,9a1,1,0,0,1-1.87.48,26.41,26.41,0,0,1-1.91-5.33c-.16-.55-.49-.78-.65-.75s-.81.69-.52,3.06a60.1,60.1,0,0,0,2.65,10.73,1,1,0,0,1,0,.76Z" fill="#093f68"></path><path d="M207,158.66a1,1,0,0,1-1-.87,3.23,3.23,0,0,0-1.18-2.34,3.85,3.85,0,0,0-2.63-.53,1,1,0,0,1-.37-2,5.8,5.8,0,0,1,4.16.87,5.15,5.15,0,0,1,2,3.72,1,1,0,0,1-.87,1.11Z" fill="#093f68"></path><path d="M196.44,165.81s-3.39,8.84-4.92,12c-3.93-4-11.29-14.63-14.46-17.12s-10.53-4.09-12.66-4.09H150.07c-8.28,0-15,7.32-15,16.34v25.37h41V185.71c8.76,5.92,12.82,9,16.79,9a8,8,0,0,0,3.14-.66c1.88-.78,6.2-2.58,13-21.4Z" fill="#55d7dc"></path><path d="M176.1,199.33h-41a1,1,0,0,1-1-1V173c0-9.56,7.18-17.34,16-17.34H164.4c2.31,0,9.92,1.67,13.28,4.3,1.85,1.46,4.85,5.28,8,9.33,1.94,2.47,3.93,5,5.52,6.8,1.65-3.75,4.24-10.52,4.27-10.6a1,1,0,0,1,.59-.58,1,1,0,0,1,.83.06l12.63,6.9a1,1,0,0,1,.46,1.22c-7,19.23-11.45,21.09-13.59,22a9.11,9.11,0,0,1-3.53.73c-3.8,0-7.57-2.57-14.41-7.23l-1.38-.94v10.74A1,1,0,0,1,176.1,199.33Zm-40-2h39V185.71a1,1,0,0,1,.53-.88,1,1,0,0,1,1,0l3,2c6.51,4.44,10.09,6.88,13.28,6.88a7.09,7.09,0,0,0,2.76-.58c1.56-.65,5.66-2.35,12.19-20L197,167.23c-1,2.46-3.31,8.48-4.54,11a1,1,0,0,1-.74.55,1,1,0,0,1-.88-.28c-1.78-1.82-4.26-5-6.67-8.05-3-3.77-6-7.67-7.69-9-2.86-2.24-9.93-3.88-12-3.88H150.07c-7.71,0-14,6.88-14,15.34Z" fill="#093f68"></path><polyline points="156.02 158.23 160.27 189.02 164.23 158.23" fill="#ffbc0e"></polyline><path d="M160.27,190a1,1,0,0,1-1-.86L155,158.36a1,1,0,0,1,2-.27l3.23,23.37,3-23.36a1,1,0,0,1,2,.25l-4,30.8a1,1,0,0,1-1,.87Z" fill="#093f68"></path><path d="M156,153.5h8.21a0,0,0,0,1,0,0v4.73a3.49,3.49,0,0,1-3.49,3.49h-1.24a3.49,3.49,0,0,1-3.49-3.49V153.5A0,0,0,0,1,156,153.5Z" fill="#ffc9b0"></path><path d="M160.75,162.71h-1.24a4.49,4.49,0,0,1-4.49-4.48V153.5a1,1,0,0,1,1-1h8.21a1,1,0,0,1,1,1v4.73A4.49,4.49,0,0,1,160.75,162.71ZM157,154.5v3.73a2.49,2.49,0,0,0,2.49,2.48h1.24a2.48,2.48,0,0,0,2.48-2.48V154.5Z" fill="#093f68"></path><ellipse cx="134.96" cy="135.19" rx="7.98" ry="6.88" transform="translate(-16.09 18.25) rotate(-7.3)" fill="#ffc9b0"></ellipse><path d="M134.64,143.08a9.43,9.43,0,0,1-5.21-1.52A7.22,7.22,0,0,1,128,130.41a9.61,9.61,0,0,1,6-3c4.9-.62,9.36,2.37,9.91,6.67h0a7.38,7.38,0,0,1-2,5.92,9.58,9.58,0,0,1-6,3A9.74,9.74,0,0,1,134.64,143.08Zm.63-13.79a8,8,0,0,0-5.78,2.46,5.23,5.23,0,0,0,1,8.14,7.89,7.89,0,0,0,9.9-1.27,5.4,5.4,0,0,0,1.46-4.32C141.51,131.38,138.65,129.29,135.27,129.29Z" fill="#093f68"></path><ellipse cx="181.11" cy="129.27" rx="7.98" ry="6.88" transform="translate(-14.96 24.07) rotate(-7.3)" fill="#ffc9b0"></ellipse><path d="M180.81,137.17c-4.37,0-8.1-2.83-8.61-6.76-.55-4.3,3-8.32,7.91-9a9.62,9.62,0,0,1,6.53,1.44,7.37,7.37,0,0,1,3.38,5.23h0a7.38,7.38,0,0,1-2,5.92,9.66,9.66,0,0,1-6,3A11.48,11.48,0,0,1,180.81,137.17Zm.62-13.79a9.73,9.73,0,0,0-1.07.06c-3.81.49-6.59,3.51-6.17,6.72s3.84,5.43,7.67,4.94a7.63,7.63,0,0,0,4.72-2.39,5.41,5.41,0,0,0,1.45-4.33h0a5.39,5.39,0,0,0-2.49-3.81A7.44,7.44,0,0,0,181.43,123.38Z" fill="#093f68"></path><path d="M158.64,109.56h0a23.3,23.3,0,0,1,23.3,23.3v21.89a0,0,0,0,1,0,0h-46.6a0,0,0,0,1,0,0V132.86A23.3,23.3,0,0,1,158.64,109.56Z" transform="translate(332.79 243.07) rotate(172.7)" fill="#ffc9b0"></path><path d="M158.5,155.76a24.31,24.31,0,0,1-24.05-21.22l-2.79-21.71a1,1,0,0,1,.2-.74,1,1,0,0,1,.67-.38l46.22-5.92a1,1,0,0,1,1.12.86l2.78,21.72a24.3,24.3,0,0,1-21,27.19A25.58,25.58,0,0,1,158.5,155.76Zm-24.73-42.19,2.66,20.72a22.3,22.3,0,0,0,44.24-5.67L178,107.9Z" fill="#093f68"></path><circle cx="149.84" cy="134.39" r="2.29" fill="#093f68"></circle><circle cx="166.98" cy="131.2" r="2.29" fill="#093f68"></circle><path d="M157.18,141.54a1,1,0,0,1-.08-2,10.69,10.69,0,0,0,3-.69,17.38,17.38,0,0,0-3.11-4.4,1,1,0,0,1,1.49-1.34c1.48,1.64,3.91,4.62,3.63,6.26a1.47,1.47,0,0,1-.77,1.09,12.11,12.11,0,0,1-4.07,1.08Z" fill="#093f68"></path><path d="M173.33,128.05h-.16l-8.14-.62a2,2,0,0,1,.3-4l8.15.62a2,2,0,0,1-.15,4Z" fill="#093f68"></path><path d="M143.3,131.33a2,2,0,0,1-.38-4l8-1.55a2,2,0,1,1,.76,3.92l-8,1.56A2.34,2.34,0,0,1,143.3,131.33Z" fill="#093f68"></path><path d="M176.1,185.71s2.68-4.4,1-11.64" fill="#55d7dc"></path><path d="M176.1,186.71a1,1,0,0,1-.52-.15,1,1,0,0,1-.33-1.37c0-.06,2.42-4.2.82-10.89a1,1,0,0,1,2-.46c1.81,7.55-.94,12.19-1.06,12.39A1,1,0,0,1,176.1,186.71Z" fill="#093f68"></path><path d="M144.63,198.7a1,1,0,0,1-1-1V185.1c-1-1.41-5.1-7.63-1.82-13.58a1,1,0,1,1,1.75,1c-3,5.45,1.81,11.6,1.85,11.67a1,1,0,0,1,.22.62V197.7A1,1,0,0,1,144.63,198.7Z" fill="#093f68"></path><path d="M135.75,127.35s12.74-3.28,15.18-14.54a17.7,17.7,0,0,1,3.26,8.19,11,11,0,0,0,7.56-7.49s8.51,4.45,9,10.06c0,0,11.45-2.47,13.58-8.46s1.9-17.71-9-22.22c-10.48-4.34-27.51-4.41-36.12,3.59a8.13,8.13,0,0,0-2.81,5.68,7.24,7.24,0,0,0-6.65,3.26c-3.06,4.4-1.7,9.94-.53,14.75.12.5,2.42,8.49,2.81,8.37Z" fill="#725858"></path><path d="M132,129.54a1.08,1.08,0,0,1-.53-.14c-1.08-.61-3.23-8.91-3.25-9-1.18-4.85-2.63-10.81.68-15.56a8.39,8.39,0,0,1,6.56-3.74,9.51,9.51,0,0,1,3-5.36c8.82-8.2,26.17-8.35,37.18-3.78,11.36,4.71,11.88,16.9,9.54,23.47s-13.83,9-14.32,9.11a1,1,0,0,1-1.21-.9c-.32-3.92-5.27-7.35-7.43-8.67a11.81,11.81,0,0,1-7.89,7,1,1,0,0,1-1.21-.89,15.31,15.31,0,0,0-1.91-5.85c-3.5,9.81-14.45,12.87-15.25,13.08l-3.76,1.2A1,1,0,0,1,132,129.54Zm-.3-2h0Zm3.9-24.47a6.45,6.45,0,0,0-5.06,2.88c-2.79,4-1.52,9.26-.39,13.89.16.66,1.62,5.67,2.32,7.46l2.95-.94h.05c.12,0,12.17-3.29,14.45-13.79a1,1,0,0,1,.76-.76,1,1,0,0,1,1,.36,19.11,19.11,0,0,1,3.3,7.47,9.94,9.94,0,0,0,5.77-6.45,1,1,0,0,1,.57-.63,1,1,0,0,1,.85,0c.34.18,7.94,4.2,9.32,9.71,2.75-.75,10.26-3.16,11.83-7.57,2.1-5.88,1.66-16.78-8.42-21-10.48-4.34-27.07-4-35.05,3.4a7.11,7.11,0,0,0-2.49,5,1,1,0,0,1-.35.75,1,1,0,0,1-.79.23C136.05,103.13,135.84,103.11,135.63,103.11Z" fill="#093f68"></path><path d="M158.68,146.56a23.74,23.74,0,0,1-4.91-.58,1,1,0,1,1,.41-1.95c5.47,1.14,7.9.23,9-.74a3.32,3.32,0,0,0,1.06-2.63,1,1,0,0,1,2-.24,5.31,5.31,0,0,1-1.66,4.32A8.4,8.4,0,0,1,158.68,146.56Z" fill="#093f68"></path><path d="M277,137.38v-4a11.05,11.05,0,0,0-11.05-11H255.36a11.05,11.05,0,0,0-11.05,11v4Z" fill="#55d7dc"></path><path d="M277,138.38H244.31a1,1,0,0,1-1-1v-4a12.06,12.06,0,0,1,12.05-12h10.56a12.06,12.06,0,0,1,12.05,12v4A1,1,0,0,1,277,138.38Zm-31.66-2H276v-3a10.06,10.06,0,0,0-10.05-10H255.36a10.06,10.06,0,0,0-10.05,10Z" fill="#093f68"></path><path d="M259.77,77.32a13.12,13.12,0,0,1,2.07-.16c3.19,0,6.45-.08,9.37,1.34a17.72,17.72,0,0,1,9.85,15.78v13.08H246.41a11.06,11.06,0,0,1-3.77-.3c-.68-.23-5.7-3-5.12-4,2.18-3.7,3.15-7.92,4.36-12,1-3.29,1.75-8,4.72-10.15,1.67-1.18,4.32-1.22,5.51.44A13.34,13.34,0,0,1,259.77,77.32Z" fill="#725858"></path><path d="M245,108.38a7.9,7.9,0,0,1-2.67-.37c-.29-.1-5.09-2.49-5.74-4.25a1.38,1.38,0,0,1,.09-1.21,40.81,40.81,0,0,0,3.66-9.7c.2-.69.39-1.39.6-2.07s.31-1.12.47-1.72c.83-3.12,1.86-7,4.63-9a5.35,5.35,0,0,1,6.1-.16,14.41,14.41,0,0,1,7.5-3.6,14,14,0,0,1,2.22-.17h.57c3.09,0,6.29,0,9.24,1.44a18.7,18.7,0,0,1,10.41,16.68v13.08a1,1,0,0,1-1,1H245Zm-6.41-5.13a19.27,19.27,0,0,0,4.39,2.87,7.46,7.46,0,0,0,2.71.25h34.39V94.28a16.66,16.66,0,0,0-9.29-14.88c-2.54-1.24-5.36-1.24-8.36-1.24h-.57a11.26,11.26,0,0,0-1.91.15h0A12.24,12.24,0,0,0,252.84,82a1,1,0,0,1-.79.32,1,1,0,0,1-.75-.41c-.85-1.19-2.88-1.09-4.12-.22-2.18,1.55-3.07,4.9-3.86,7.85-.16.62-.32,1.22-.49,1.77s-.39,1.37-.58,2A44.51,44.51,0,0,1,238.57,103.25Zm21.21-25.93h0Z" fill="#093f68"></path><path d="M258.53,120.22h5.56a0,0,0,0,1,0,0v3.2a2.36,2.36,0,0,1-2.36,2.36h-.84a2.36,2.36,0,0,1-2.36-2.36v-3.2A0,0,0,0,1,258.53,120.22Z" fill="#ffc9b0"></path><path d="M261.73,126.77h-.84a3.36,3.36,0,0,1-3.36-3.36v-3.19a1,1,0,0,1,1-1h5.56a1,1,0,0,1,1,1v3.19A3.36,3.36,0,0,1,261.73,126.77Zm-2.2-5.55v2.19a1.36,1.36,0,0,0,1.36,1.36h.84a1.36,1.36,0,0,0,1.36-1.36v-2.19Z" fill="#093f68"></path><ellipse cx="245.43" cy="105.79" rx="5.4" ry="4.65" fill="#ffc9b0"></ellipse><path d="M245.43,111.44c-3.53,0-6.4-2.54-6.4-5.65s2.87-5.66,6.4-5.66,6.4,2.54,6.4,5.66S249,111.44,245.43,111.44Zm0-9.31c-2.42,0-4.4,1.64-4.4,3.66s2,3.65,4.4,3.65,4.4-1.64,4.4-3.65S247.86,102.13,245.43,102.13Z" fill="#093f68"></path><ellipse cx="276.9" cy="105.79" rx="5.4" ry="4.65" fill="#ffc9b0"></ellipse><path d="M276.9,111.44c-3.53,0-6.4-2.54-6.4-5.65s2.87-5.66,6.4-5.66,6.4,2.54,6.4,5.66S280.43,111.44,276.9,111.44Zm0-9.31c-2.43,0-4.4,1.64-4.4,3.66s2,3.65,4.4,3.65,4.4-1.64,4.4-3.65S279.33,102.13,276.9,102.13Z" fill="#093f68"></path><path d="M261.31,121A16.28,16.28,0,0,1,245,104.67a29.74,29.74,0,0,1,1.45-9.6c.56-1.61,1.43-3.31,3-3.93s3.84.65,3.46,2.31a5.53,5.53,0,0,1,3.41-3.94,15.93,15.93,0,0,1,5.32-1c3.21-.21,6.53-.37,9.57.7,7,2.48,6.34,9.36,6.34,15.45A16.28,16.28,0,0,1,261.31,121Z" fill="#ffc9b0"></path><path d="M261.31,122A17.3,17.3,0,0,1,244,104.67a31,31,0,0,1,1.51-9.93c.54-1.55,1.5-3.71,3.58-4.53a3.84,3.84,0,0,1,3.81.7s0,0,0,0a7.28,7.28,0,0,1,3-2.35,16.78,16.78,0,0,1,5.65-1.07c3.61-.24,6.84-.36,10,.75,7.13,2.52,7.07,9.1,7,14.91,0,.5,0,1,0,1.48A17.3,17.3,0,0,1,261.31,122ZM250.38,92a1.27,1.27,0,0,0-.52.1c-1,.39-1.79,1.48-2.44,3.32a29.21,29.21,0,0,0-1.39,9.28,15.28,15.28,0,1,0,30.56,0c0-.5,0-1,0-1.5,0-5.63.1-11-5.69-13-2.76-1-5.79-.87-9.16-.64a15.16,15.16,0,0,0-5,.91,4.63,4.63,0,0,0-2.79,3,1.42,1.42,0,0,1-.05.22,1,1,0,0,1-1.16.76,1,1,0,0,1-.8-1.13l0-.16a.89.89,0,0,0-.36-.71A2,2,0,0,0,250.38,92Z" fill="#093f68"></path><path d="M262.48,110.75a9.54,9.54,0,0,1-1.55-.13,1,1,0,0,1,.34-2,8.11,8.11,0,0,0,1.57.09,14.12,14.12,0,0,0-1.16-2.86,1,1,0,1,1,1.77-.93c.86,1.64,1.78,3.82,1.29,4.89a1.3,1.3,0,0,1-.9.76A5.73,5.73,0,0,1,262.48,110.75Z" fill="#093f68"></path><path d="M266.43,112.18l-9.2,2.29s.89,3.52,5.24,2.84S266.43,112.18,266.43,112.18Z" fill="#093f68"></path><path d="M251.43,138a1,1,0,0,1-1-1v-2.68a1,1,0,0,1,2,0V137A1,1,0,0,1,251.43,138Z" fill="#093f68"></path><path d="M269.85,138a1,1,0,0,1-1-1v-2.68a1,1,0,0,1,2,0V137A1,1,0,0,1,269.85,138Z" fill="#093f68"></path><circle cx="268.15" cy="104.94" r="1.41" fill="#093f68"></circle><circle cx="254.91" cy="104.38" r="1.41" fill="#093f68"></circle><path d="M256.32,101.38H250a2,2,0,0,1,0-4h6.33a2,2,0,0,1,0,4Z" fill="#093f68"></path><path d="M273,101.38h-6.33a2,2,0,0,1,0-4H273a2,2,0,0,1,0,4Z" fill="#093f68"></path><circle cx="200" cy="67.53" r="2.8" fill="#fff"></circle><path d="M200,71.33a3.8,3.8,0,1,1,3.8-3.8A3.8,3.8,0,0,1,200,71.33Zm0-5.6a1.8,1.8,0,1,0,1.8,1.8A1.81,1.81,0,0,0,200,65.73Z" fill="#093f68"></path><path d="M132.49,84.12H109.25a1,1,0,0,1,0-2h23.24a1,1,0,0,1,0,2Z" fill="#dfeaef"></path><path d="M237.47,82.12H229a1,1,0,0,1,0-2h8.46a1,1,0,1,1,0,2Z" fill="#dfeaef"></path><path d="M234.64,147.36h-7a1,1,0,0,1,0-2h7a1,1,0,0,1,0,2Z" fill="#dfeaef"></path><path d="M293.21,205h-4.09a1,1,0,0,1,0-2h4.09a1,1,0,0,1,0,2Z" fill="#093f68"></path><path d="M286.45,205h-4.09a1,1,0,0,1,0-2h4.09a1,1,0,0,1,0,2Z" fill="#093f68"></path></svg>